<svg width="75" height="20" viewBox="0 0 75 20" fill="none" xmlns="http://www.w3.org/2000/svg">
<rect x="-3.05176e-05" width="75" height="20" rx="10" fill="black" fill-opacity="0.2"/>
<circle cx="9.99997" cy="10" r="2" fill="#FF9C41"/>
<path d="M21.168 6.289C22.3046 6.289 23.1773 6.49067 23.786 6.894C24.3946 7.29 24.699 7.94267 24.699 8.852C24.699 9.76867 24.391 10.4323 23.775 10.843C23.159 11.2463 22.279 11.448 21.135 11.448H20.596V14H18.88V6.487C19.254 6.41367 19.65 6.36233 20.068 6.333C20.486 6.30367 20.8526 6.289 21.168 6.289ZM21.278 7.752C21.1533 7.752 21.0286 7.75567 20.904 7.763C20.7866 7.77033 20.684 7.77767 20.596 7.785V9.985H21.135C21.729 9.985 22.1763 9.90433 22.477 9.743C22.7776 9.58167 22.928 9.281 22.928 8.841C22.928 8.62833 22.8876 8.45233 22.807 8.313C22.7336 8.17367 22.6236 8.06367 22.477 7.983C22.3376 7.895 22.1653 7.83633 21.96 7.807C21.7546 7.77033 21.5273 7.752 21.278 7.752ZM25.7591 14V6.377H30.9071V7.818H27.4751V9.314H30.5221V10.722H27.4751V12.559H31.1601V14H25.7591ZM37.345 14C36.8536 13.1273 36.322 12.2657 35.75 11.415C35.178 10.5643 34.5693 9.76133 33.924 9.006V14H32.23V6.377H33.627C33.869 6.619 34.1366 6.916 34.43 7.268C34.7233 7.62 35.0203 7.99767 35.321 8.401C35.629 8.797 35.9333 9.21133 36.234 9.644C36.5346 10.0693 36.817 10.48 37.081 10.876V6.377H38.786V14H37.345ZM42.0604 12.603C42.1411 12.6103 42.2328 12.6177 42.3354 12.625C42.4454 12.625 42.5738 12.625 42.7204 12.625C43.5784 12.625 44.2128 12.4087 44.6234 11.976C45.0414 11.5433 45.2504 10.9457 45.2504 10.183C45.2504 9.38367 45.0524 8.77867 44.6564 8.368C44.2604 7.95733 43.6334 7.752 42.7754 7.752C42.6581 7.752 42.5371 7.75567 42.4124 7.763C42.2878 7.763 42.1704 7.77033 42.0604 7.785V12.603ZM47.0214 10.183C47.0214 10.843 46.9188 11.4187 46.7134 11.91C46.5081 12.4013 46.2148 12.8083 45.8334 13.131C45.4594 13.4537 45.0011 13.6957 44.4584 13.857C43.9158 14.0183 43.3071 14.099 42.6324 14.099C42.3244 14.099 41.9651 14.0843 41.5544 14.055C41.1438 14.033 40.7404 13.9817 40.3444 13.901V6.476C40.7404 6.40267 41.1511 6.355 41.5764 6.333C42.0091 6.30367 42.3794 6.289 42.6874 6.289C43.3401 6.289 43.9304 6.36233 44.4584 6.509C44.9938 6.65567 45.4521 6.88667 45.8334 7.202C46.2148 7.51733 46.5081 7.92067 46.7134 8.412C46.9188 8.90333 47.0214 9.49367 47.0214 10.183ZM48.2548 6.377H49.9708V14H48.2548V6.377ZM56.6502 14C56.1589 13.1273 55.6272 12.2657 55.0552 11.415C54.4832 10.5643 53.8746 9.76133 53.2292 9.006V14H51.5352V6.377H52.9322C53.1742 6.619 53.4419 6.916 53.7352 7.268C54.0286 7.62 54.3256 7.99767 54.6262 8.401C54.9342 8.797 55.2386 9.21133 55.5392 9.644C55.8399 10.0693 56.1222 10.48 56.3862 10.876V6.377H58.0912V14H56.6502ZM63.3677 7.697C62.5684 7.697 61.989 7.92067 61.6297 8.368C61.2777 8.808 61.1017 9.413 61.1017 10.183C61.1017 10.557 61.1457 10.898 61.2337 11.206C61.3217 11.5067 61.4537 11.767 61.6297 11.987C61.8057 12.207 62.0257 12.3793 62.2897 12.504C62.5537 12.6213 62.8617 12.68 63.2137 12.68C63.4044 12.68 63.5657 12.6763 63.6977 12.669C63.837 12.6617 63.958 12.647 64.0607 12.625V9.974H65.7767V13.747C65.5714 13.8277 65.2414 13.912 64.7867 14C64.332 14.0953 63.771 14.143 63.1037 14.143C62.5317 14.143 62.011 14.055 61.5417 13.879C61.0797 13.703 60.6837 13.4463 60.3537 13.109C60.0237 12.7717 59.767 12.3573 59.5837 11.866C59.4077 11.3747 59.3197 10.8137 59.3197 10.183C59.3197 9.545 59.4187 8.98033 59.6167 8.489C59.8147 7.99767 60.086 7.58333 60.4307 7.246C60.7754 6.90133 61.1787 6.641 61.6407 6.465C62.11 6.289 62.6087 6.201 63.1367 6.201C63.496 6.201 63.8187 6.22667 64.1047 6.278C64.398 6.322 64.6474 6.377 64.8527 6.443C65.0654 6.50167 65.2377 6.564 65.3697 6.63C65.509 6.696 65.608 6.74733 65.6667 6.784L65.1717 8.159C64.937 8.03433 64.6657 7.928 64.3577 7.84C64.057 7.74467 63.727 7.697 63.3677 7.697Z" fill="white"/>
</svg>
