<svg width="16" height="16" viewBox="0 0 16 16" fill="none" xmlns="http://www.w3.org/2000/svg">
<g id="Icons / Download" clip-path="url(#clip0_558_276)">
<g id="Union">
<path d="M8.96665 5.99991H7.03332V7.99991H5.33332L7.99998 10.6666L10.6667 7.99991H8.96665V5.99991Z" fill="#292936"/>
<path fill-rule="evenodd" clip-rule="evenodd" d="M3.99998 13.3332H12.6667C14.4095 13.3342 15.8588 11.9924 15.992 10.2546C16.1252 8.51693 14.8973 6.96993 13.1747 6.70525C12.8867 5.56323 12.2307 4.54782 11.308 3.81591C10.3683 3.06745 9.20133 2.662 7.99998 2.66654C6.07339 2.66892 4.29712 3.70784 3.35065 5.38591C1.29433 5.72294 -0.158793 7.58215 0.0108932 9.65898C0.18058 11.7358 1.91623 13.3345 3.99998 13.3332ZM4.51198 6.04058C5.22177 4.78131 6.55446 4.00162 7.99998 3.99991C9.83638 3.99655 11.4382 5.24645 11.8813 7.02858L12.096 7.88991L12.9733 8.02325C14.0068 8.18251 14.7432 9.11107 14.6628 10.1537C14.5824 11.1963 13.7124 12.001 12.6667 11.9999H3.99998C2.61447 11.9958 1.46293 10.9313 1.35013 9.55037C1.23732 8.16944 2.20084 6.93218 3.56732 6.70325L4.19998 6.59991L4.51198 6.04058Z" fill="#292936"/>
</g>
</g>
<defs>
<clipPath id="clip0_558_276">
<rect width="16" height="16" fill="white"/>
</clipPath>
</defs>
</svg>
