<svg width="16" height="16" viewBox="0 0 16 16" fill="none" xmlns="http://www.w3.org/2000/svg">
<g id="Icons / Refresh">
<g id="Union">
<path d="M12.6667 1.33337C13.0349 1.33337 13.3333 1.63185 13.3333 2.00004V5.33337C13.3333 5.70156 13.0349 6.00004 12.6667 6.00004H9.33334C8.96515 6.00004 8.66668 5.70156 8.66668 5.33337C8.66668 4.96518 8.96515 4.66671 9.33334 4.66671H11.266C10.9457 4.35292 10.5804 4.08539 10.1801 3.8739C9.40812 3.46603 8.53721 3.2829 7.66635 3.34532C6.7955 3.40774 5.95961 3.71322 5.25372 4.22703C4.54782 4.74083 4.00022 5.44236 3.67315 6.25188C3.53522 6.59326 3.14667 6.75819 2.80529 6.62026C2.46391 6.48234 2.29898 6.09378 2.4369 5.7524C2.85742 4.7116 3.56148 3.80963 4.46906 3.14902C5.37664 2.48841 6.45135 2.09566 7.57102 2.0154C8.6907 1.93514 9.81043 2.17059 10.803 2.695C11.2364 2.92403 11.6381 3.20417 12 3.52791V2.00004C12 1.63185 12.2985 1.33337 12.6667 1.33337Z" fill="white"/>
<path d="M13.5632 10.2477C13.7011 9.90628 13.5362 9.51772 13.1948 9.3798C12.8534 9.24187 12.4649 9.4068 12.327 9.74818C11.9999 10.5577 11.4523 11.2592 10.7464 11.773C10.0405 12.2868 9.20461 12.5923 8.33375 12.6547C7.4629 12.7172 6.59199 12.534 5.82003 12.1262C5.41975 11.9147 5.05439 11.6472 4.73414 11.3334H6.66668C7.03487 11.3334 7.33334 11.0349 7.33334 10.6667C7.33334 10.2985 7.03487 10 6.66668 10H3.33334C2.96515 10 2.66668 10.2985 2.66668 10.6667V14C2.66668 14.3682 2.96515 14.6667 3.33334 14.6667C3.70153 14.6667 4.00001 14.3682 4.00001 14V12.4721C4.36198 12.7958 4.76363 13.076 5.19715 13.3051C6.18967 13.8295 7.30941 14.0649 8.42908 13.9847C9.54876 13.9044 10.6235 13.5116 11.531 12.851C12.4386 12.1904 13.1427 11.2885 13.5632 10.2477Z" fill="white"/>
</g>
</g>
</svg>
